<?xml version="1.0" standalone="no"?>
<!DOCTYPE svg PUBLIC "-//W3C//DTD SVG 20010904//EN"
 "http://www.w3.org/TR/2001/REC-SVG-20010904/DTD/svg10.dtd">
<svg version="1.0" xmlns="http://www.w3.org/2000/svg"
 width="114.000000pt" height="47.000000pt" viewBox="0 0 114.000000 47.000000"
 preserveAspectRatio="xMidYMid meet">
<metadata>
Created by potrace 1.16, written by Peter Selinger 2001-2019
</metadata>
<g transform="translate(0.000000,47.000000) scale(0.100000,-0.100000)"
fill="#000000" stroke="none">
<path d="M230 440 c-14 -3 -32 -18 -40 -33 -19 -34 -8 -53 51 -88 46 -27 59
-50 39 -74 -19 -22 -61 -19 -67 5 -3 11 -14 20 -24 20 -24 0 -24 -11 2 -44 40
-50 129 -23 129 40 0 39 -15 59 -60 79 -30 14 -40 23 -38 38 5 33 33 44 56 23
23 -20 41 -4 23 18 -15 18 -40 24 -71 16z"/>
<path d="M550 441 c0 -8 -77 -179 -101 -223 -8 -14 -6 -18 9 -18 12 0 24 11
32 30 12 28 16 30 67 30 52 0 55 -2 66 -30 7 -18 19 -30 29 -30 10 0 18 2 18
4 0 3 -31 72 -96 214 -15 32 -24 41 -24 23z"/>
<path d="M810 320 l0 -120 60 0 c47 0 60 3 60 15 0 11 -12 15 -45 15 l-45 0 0
45 0 45 45 0 c33 0 45 4 45 15 0 11 -12 15 -45 15 -43 0 -45 1 -45 30 0 29 2
30 45 30 33 0 45 4 45 15 0 12 -13 15 -60 15 l-60 0 0 -120z"/>
</g>
</svg>
