<svg width="365" height="443" viewBox="0 0 365 443" fill="none" xmlns="http://www.w3.org/2000/svg">
    <path d="M160 415.167C160 414.001 160.249 413.182 160.747 412.709C161.244 412.236 161.839 412 162.53 412C163.249 412 163.857 412.236 164.355 412.709C164.88 413.182 165.143 414.001 165.143 415.167C165.143 416.302 164.88 417.121 164.355 417.625C163.857 418.13 163.249 418.382 162.53 418.382C161.839 418.382 161.244 418.13 160.747 417.625C160.249 417.121 160 416.302 160 415.167Z" fill="#04D361"/>
    <path d="M273 425H254.42V421.975H273V425Z" fill="#04D361"/>
    <path d="M188.992 137.656C208.263 137.656 224.799 141.823 238.602 150.156C252.664 158.49 263.341 170.078 270.633 184.922C278.185 199.505 281.961 216.432 281.961 235.703V256.797H138.992C141.596 270.078 148.107 280.755 158.523 288.828C168.94 296.901 181.701 300.938 196.805 300.938C211.128 300.938 224.148 298.073 235.867 292.344C247.586 286.615 256.961 280.755 263.992 274.766L263.602 320.859C257.352 326.328 247.977 331.927 235.477 337.656C223.237 343.125 209.695 345.859 194.852 345.859C175.32 345.859 157.482 341.432 141.336 332.578C125.451 323.724 112.69 311.615 103.055 296.25C93.6797 280.885 88.9922 263.307 88.9922 243.516C88.9922 224.245 93.2891 206.667 101.883 190.781C110.477 174.896 122.326 162.135 137.43 152.5C152.534 142.604 169.721 137.656 188.992 137.656ZM187.82 181.016C175.581 181.016 165.294 184.792 156.961 192.344C148.628 199.896 142.898 210.052 139.773 222.812H234.305C233.263 208.75 228.055 198.333 218.68 191.562C209.305 184.531 199.018 181.016 187.82 181.016Z" fill="#1B4A05" fill-opacity="0.17"/>
    <path d="M238.602 150.156L238.085 151.012L238.092 151.017L238.602 150.156ZM270.633 184.922L269.735 185.363L269.74 185.372L269.745 185.382L270.633 184.922ZM281.961 256.797V257.797H282.961V256.797H281.961ZM138.992 256.797V255.797H137.777L138.011 256.989L138.992 256.797ZM235.867 292.344L235.428 291.445L235.867 292.344ZM263.992 274.766L264.992 274.774L265.011 272.584L263.344 274.004L263.992 274.766ZM263.602 320.859L264.26 321.612L264.598 321.317L264.602 320.868L263.602 320.859ZM235.477 337.656L235.885 338.569L235.893 338.565L235.477 337.656ZM141.336 332.578L140.849 333.452L140.855 333.455L141.336 332.578ZM103.055 296.25L102.201 296.771L102.207 296.781L103.055 296.25ZM137.43 152.5L137.968 153.343L137.978 153.336L137.43 152.5ZM139.773 222.812L138.802 222.575L138.499 223.812H139.773V222.812ZM234.305 222.812V223.812H235.382L235.302 222.739L234.305 222.812ZM218.68 191.562L218.08 192.363L218.087 192.368L218.094 192.373L218.68 191.562ZM188.992 138.656C208.117 138.656 224.467 142.79 238.085 151.012L239.118 149.3C225.132 140.856 208.409 136.656 188.992 136.656V138.656ZM238.092 151.017C251.985 159.25 262.528 170.691 269.735 185.363L271.53 184.481C264.154 169.465 253.343 157.73 239.111 149.296L238.092 151.017ZM269.745 185.382C277.212 199.8 280.961 216.565 280.961 235.703H282.961C282.961 216.3 279.158 199.21 271.521 184.462L269.745 185.382ZM280.961 235.703V256.797H282.961V235.703H280.961ZM281.961 255.797H138.992V257.797H281.961V255.797ZM138.011 256.989C140.66 270.501 147.297 281.393 157.911 289.619L159.136 288.038C148.916 280.117 142.533 269.655 139.974 256.604L138.011 256.989ZM157.911 289.619C168.528 297.847 181.513 301.938 196.805 301.938V299.938C181.888 299.938 169.352 295.955 159.136 288.038L157.911 289.619ZM196.805 301.938C211.265 301.938 224.438 299.045 236.306 293.242L235.428 291.445C223.859 297.101 210.991 299.938 196.805 299.938V301.938ZM236.306 293.242C248.072 287.49 257.526 281.588 264.641 275.527L263.344 274.004C256.396 279.923 247.1 285.739 235.428 291.445L236.306 293.242ZM262.992 274.757L262.602 320.851L264.602 320.868L264.992 274.774L262.992 274.757ZM262.943 320.107C256.798 325.484 247.522 331.036 235.06 336.747L235.893 338.565C248.432 332.819 257.906 327.172 264.26 321.612L262.943 320.107ZM235.069 336.743C222.971 342.149 209.57 344.859 194.852 344.859V346.859C209.821 346.859 223.503 344.101 235.885 338.569L235.069 336.743ZM194.852 344.859C175.478 344.859 157.806 340.47 141.817 331.701L140.855 333.455C157.157 342.395 175.163 346.859 194.852 346.859V344.859ZM141.823 331.705C126.084 322.932 113.448 310.94 103.902 295.719L102.207 296.781C111.933 312.289 124.817 324.516 140.849 333.452L141.823 331.705ZM103.908 295.729C94.6384 280.537 89.9922 263.142 89.9922 243.516H87.9922C87.9922 263.472 92.7209 281.234 102.201 296.771L103.908 295.729ZM89.9922 243.516C89.9922 224.399 94.2529 206.987 102.762 191.257L101.003 190.305C92.3252 206.347 87.9922 224.09 87.9922 243.516H89.9922ZM102.762 191.257C111.276 175.52 123.008 162.886 137.968 153.343L136.892 151.657C121.643 161.385 109.677 174.272 101.003 190.305L102.762 191.257ZM137.978 153.336C152.908 143.555 169.902 138.656 188.992 138.656V136.656C169.54 136.656 152.16 141.654 136.882 151.664L137.978 153.336ZM187.82 180.016C175.356 180.016 164.824 183.869 156.289 191.603L157.632 193.085C165.765 185.715 175.805 182.016 187.82 182.016V180.016ZM156.289 191.603C147.785 199.31 141.966 209.654 138.802 222.575L140.745 223.05C143.83 210.45 149.471 200.481 157.632 193.085L156.289 191.603ZM139.773 223.812H234.305V221.812H139.773V223.812ZM235.302 222.739C234.244 208.453 228.932 197.733 219.265 190.752L218.094 192.373C227.178 198.934 232.282 209.047 233.307 222.886L235.302 222.739ZM219.28 190.762C209.74 183.608 199.245 180.016 187.82 180.016V182.016C198.791 182.016 208.869 185.455 218.08 192.363L219.28 190.762Z" fill="black"/>
    <path d="M238.602 150.156L238.085 151.012L238.092 151.017L238.602 150.156ZM270.633 184.922L269.735 185.363L269.74 185.372L269.745 185.382L270.633 184.922ZM281.961 256.797V257.797H282.961V256.797H281.961ZM138.992 256.797V255.797H137.777L138.011 256.989L138.992 256.797ZM235.867 292.344L235.428 291.445L235.867 292.344ZM263.992 274.766L264.992 274.774L265.011 272.584L263.344 274.004L263.992 274.766ZM263.602 320.859L264.26 321.612L264.598 321.317L264.602 320.868L263.602 320.859ZM235.477 337.656L235.885 338.569L235.893 338.565L235.477 337.656ZM141.336 332.578L140.849 333.452L140.855 333.455L141.336 332.578ZM103.055 296.25L102.201 296.771L102.207 296.781L103.055 296.25ZM137.43 152.5L137.968 153.343L137.978 153.336L137.43 152.5ZM139.773 222.812L138.802 222.575L138.499 223.812H139.773V222.812ZM234.305 222.812V223.812H235.382L235.302 222.739L234.305 222.812ZM218.68 191.562L218.08 192.363L218.087 192.368L218.094 192.373L218.68 191.562ZM188.992 138.656C208.117 138.656 224.467 142.79 238.085 151.012L239.118 149.3C225.132 140.856 208.409 136.656 188.992 136.656V138.656ZM238.092 151.017C251.985 159.25 262.528 170.691 269.735 185.363L271.53 184.481C264.154 169.465 253.343 157.73 239.111 149.296L238.092 151.017ZM269.745 185.382C277.212 199.8 280.961 216.565 280.961 235.703H282.961C282.961 216.3 279.158 199.21 271.521 184.462L269.745 185.382ZM280.961 235.703V256.797H282.961V235.703H280.961ZM281.961 255.797H138.992V257.797H281.961V255.797ZM138.011 256.989C140.66 270.501 147.297 281.393 157.911 289.619L159.136 288.038C148.916 280.117 142.533 269.655 139.974 256.604L138.011 256.989ZM157.911 289.619C168.528 297.847 181.513 301.938 196.805 301.938V299.938C181.888 299.938 169.352 295.955 159.136 288.038L157.911 289.619ZM196.805 301.938C211.265 301.938 224.438 299.045 236.306 293.242L235.428 291.445C223.859 297.101 210.991 299.938 196.805 299.938V301.938ZM236.306 293.242C248.072 287.49 257.526 281.588 264.641 275.527L263.344 274.004C256.396 279.923 247.1 285.739 235.428 291.445L236.306 293.242ZM262.992 274.757L262.602 320.851L264.602 320.868L264.992 274.774L262.992 274.757ZM262.943 320.107C256.798 325.484 247.522 331.036 235.06 336.747L235.893 338.565C248.432 332.819 257.906 327.172 264.26 321.612L262.943 320.107ZM235.069 336.743C222.971 342.149 209.57 344.859 194.852 344.859V346.859C209.821 346.859 223.503 344.101 235.885 338.569L235.069 336.743ZM194.852 344.859C175.478 344.859 157.806 340.47 141.817 331.701L140.855 333.455C157.157 342.395 175.163 346.859 194.852 346.859V344.859ZM141.823 331.705C126.084 322.932 113.448 310.94 103.902 295.719L102.207 296.781C111.933 312.289 124.817 324.516 140.849 333.452L141.823 331.705ZM103.908 295.729C94.6384 280.537 89.9922 263.142 89.9922 243.516H87.9922C87.9922 263.472 92.7209 281.234 102.201 296.771L103.908 295.729ZM89.9922 243.516C89.9922 224.399 94.2529 206.987 102.762 191.257L101.003 190.305C92.3252 206.347 87.9922 224.09 87.9922 243.516H89.9922ZM102.762 191.257C111.276 175.52 123.008 162.886 137.968 153.343L136.892 151.657C121.643 161.385 109.677 174.272 101.003 190.305L102.762 191.257ZM137.978 153.336C152.908 143.555 169.902 138.656 188.992 138.656V136.656C169.54 136.656 152.16 141.654 136.882 151.664L137.978 153.336ZM187.82 180.016C175.356 180.016 164.824 183.869 156.289 191.603L157.632 193.085C165.765 185.715 175.805 182.016 187.82 182.016V180.016ZM156.289 191.603C147.785 199.31 141.966 209.654 138.802 222.575L140.745 223.05C143.83 210.45 149.471 200.481 157.632 193.085L156.289 191.603ZM139.773 223.812H234.305V221.812H139.773V223.812ZM235.302 222.739C234.244 208.453 228.932 197.733 219.265 190.752L218.094 192.373C227.178 198.934 232.282 209.047 233.307 222.886L235.302 222.739ZM219.28 190.762C209.74 183.608 199.245 180.016 187.82 180.016V182.016C198.791 182.016 208.869 185.455 218.08 192.363L219.28 190.762Z" fill="black" fill-opacity="0.2"/>
    <path d="M108.121 396.766C110.048 396.766 111.702 397.182 113.082 398.016C114.488 398.849 115.556 400.008 116.285 401.492C117.04 402.951 117.418 404.643 117.418 406.57V408.68H103.121C103.382 410.008 104.033 411.076 105.074 411.883C106.116 412.69 107.392 413.094 108.902 413.094C110.335 413.094 111.637 412.807 112.809 412.234C113.98 411.661 114.918 411.076 115.621 410.477L115.582 415.086C114.957 415.633 114.02 416.193 112.77 416.766C111.546 417.312 110.191 417.586 108.707 417.586C106.754 417.586 104.97 417.143 103.355 416.258C101.767 415.372 100.491 414.161 99.5273 412.625C98.5898 411.089 98.1211 409.331 98.1211 407.352C98.1211 405.424 98.5508 403.667 99.4102 402.078C100.27 400.49 101.454 399.214 102.965 398.25C104.475 397.26 106.194 396.766 108.121 396.766ZM108.004 401.102C106.78 401.102 105.751 401.479 104.918 402.234C104.085 402.99 103.512 404.005 103.199 405.281H112.652C112.548 403.875 112.027 402.833 111.09 402.156C110.152 401.453 109.124 401.102 108.004 401.102ZM126.91 397.273V400.086C127.509 399.279 128.316 398.523 129.332 397.82C130.374 397.117 131.559 396.766 132.887 396.766C134.892 396.766 136.572 397.443 137.926 398.797C139.28 400.151 139.957 402.182 139.957 404.891V417H134.996L134.957 405.555C134.957 404.227 134.632 403.237 133.98 402.586C133.355 401.935 132.483 401.609 131.363 401.609C130.478 401.609 129.645 401.896 128.863 402.469C128.108 403.042 127.457 403.719 126.91 404.5V417H121.949V397.273H126.91ZM157.223 397.273V401.414H152.105V417H147.145V401.414H144.137V397.273H147.145V395.516C147.145 394.005 147.457 392.716 148.082 391.648C148.733 390.555 149.579 389.721 150.621 389.148C151.663 388.576 152.809 388.289 154.059 388.289C154.892 388.289 155.621 388.38 156.246 388.562C156.871 388.745 157.418 388.992 157.887 389.305V393.445C157.027 392.924 156.038 392.677 154.918 392.703C154.137 392.729 153.473 392.99 152.926 393.484C152.379 393.953 152.105 394.734 152.105 395.828V397.273H157.223ZM181.051 390.32C182.561 390.32 183.941 390.529 185.191 390.945C186.441 391.362 187.496 391.844 188.355 392.391V397.742C187.418 397.169 186.415 396.635 185.348 396.141C184.28 395.646 183.069 395.398 181.715 395.398C181.038 395.398 180.361 395.503 179.684 395.711C179.033 395.919 178.486 396.232 178.043 396.648C177.626 397.065 177.418 397.599 177.418 398.25C177.418 399.109 177.796 399.76 178.551 400.203C179.306 400.646 180.23 401.089 181.324 401.531L184.527 402.859C186.35 403.641 187.691 404.591 188.551 405.711C189.41 406.831 189.84 408.107 189.84 409.539C189.84 411.102 189.384 412.482 188.473 413.68C187.587 414.852 186.389 415.776 184.879 416.453C183.395 417.13 181.741 417.469 179.918 417.469C178.382 417.469 176.91 417.208 175.504 416.688C174.098 416.167 172.874 415.529 171.832 414.773V409.422C172.978 410.255 174.241 410.958 175.621 411.531C177.001 412.104 178.473 412.391 180.035 412.391C181.129 412.391 182.066 412.182 182.848 411.766C183.629 411.323 184.02 410.672 184.02 409.812C184.02 409.135 183.694 408.589 183.043 408.172C182.418 407.729 181.728 407.365 180.973 407.078L176.949 405.516C174.918 404.734 173.538 403.719 172.809 402.469C172.105 401.193 171.754 399.786 171.754 398.25C171.754 396.661 172.184 395.281 173.043 394.109C173.928 392.911 175.074 391.987 176.48 391.336C177.887 390.659 179.41 390.32 181.051 390.32ZM203.082 396.766C205.009 396.766 206.663 397.182 208.043 398.016C209.449 398.849 210.517 400.008 211.246 401.492C212.001 402.951 212.379 404.643 212.379 406.57V408.68H198.082C198.342 410.008 198.993 411.076 200.035 411.883C201.077 412.69 202.353 413.094 203.863 413.094C205.296 413.094 206.598 412.807 207.77 412.234C208.941 411.661 209.879 411.076 210.582 410.477L210.543 415.086C209.918 415.633 208.98 416.193 207.73 416.766C206.507 417.312 205.152 417.586 203.668 417.586C201.715 417.586 199.931 417.143 198.316 416.258C196.728 415.372 195.452 414.161 194.488 412.625C193.551 411.089 193.082 409.331 193.082 407.352C193.082 405.424 193.512 403.667 194.371 402.078C195.23 400.49 196.415 399.214 197.926 398.25C199.436 397.26 201.155 396.766 203.082 396.766ZM202.965 401.102C201.741 401.102 200.712 401.479 199.879 402.234C199.046 402.99 198.473 404.005 198.16 405.281H207.613C207.509 403.875 206.988 402.833 206.051 402.156C205.113 401.453 204.085 401.102 202.965 401.102ZM221.871 397.273V400.086C222.47 399.279 223.277 398.523 224.293 397.82C225.335 397.117 226.52 396.766 227.848 396.766C229.853 396.766 231.533 397.443 232.887 398.797C234.241 400.151 234.918 402.182 234.918 404.891V417H229.957L229.918 405.555C229.918 404.227 229.592 403.237 228.941 402.586C228.316 401.935 227.444 401.609 226.324 401.609C225.439 401.609 224.605 401.896 223.824 402.469C223.069 403.042 222.418 403.719 221.871 404.5V417H216.91V397.273H221.871ZM244.762 387C245.699 387 246.507 387.339 247.184 388.016C247.861 388.667 248.199 389.448 248.199 390.359C248.199 391.245 247.861 392.026 247.184 392.703C246.507 393.38 245.699 393.719 244.762 393.719C243.824 393.719 243.017 393.38 242.34 392.703C241.689 392.026 241.363 391.245 241.363 390.359C241.363 389.448 241.689 388.667 242.34 388.016C243.017 387.339 243.824 387 244.762 387ZM247.652 397.273V417H242.691V401.492H239.527V397.273H247.652ZM263.082 396.766C265.009 396.766 266.767 397.234 268.355 398.172C269.944 399.083 271.22 400.333 272.184 401.922C273.173 403.484 273.668 405.242 273.668 407.195C273.668 409.148 273.173 410.906 272.184 412.469C271.22 414.031 269.944 415.281 268.355 416.219C266.767 417.13 265.009 417.586 263.082 417.586C261.181 417.586 259.423 417.13 257.809 416.219C256.22 415.281 254.944 414.031 253.98 412.469C253.017 410.906 252.535 409.148 252.535 407.195C252.535 405.242 253.017 403.484 253.98 401.922C254.944 400.333 256.22 399.083 257.809 398.172C259.423 397.234 261.181 396.766 263.082 396.766ZM263.082 401.57C262.145 401.57 261.272 401.792 260.465 402.234C259.658 402.677 259.007 403.315 258.512 404.148C258.043 404.982 257.809 405.997 257.809 407.195C257.809 408.393 258.043 409.409 258.512 410.242C259.007 411.076 259.658 411.714 260.465 412.156C261.272 412.573 262.145 412.781 263.082 412.781C264.02 412.781 264.892 412.573 265.699 412.156C266.507 411.714 267.158 411.076 267.652 410.242C268.147 409.409 268.395 408.393 268.395 407.195C268.395 405.997 268.147 404.982 267.652 404.148C267.158 403.315 266.507 402.677 265.699 402.234C264.892 401.792 264.02 401.57 263.082 401.57ZM290.777 402.82C289.944 402.352 289.072 402.117 288.16 402.117C287.014 402.117 286.064 402.495 285.309 403.25C284.553 403.979 283.889 404.891 283.316 405.984V417H278.355V397.273H283.316V400.984C283.993 399.812 284.788 398.836 285.699 398.055C286.637 397.273 287.691 396.883 288.863 396.883C289.566 396.883 290.204 397 290.777 397.234V402.82Z" fill="white"/>
    </svg>
    