<svg width="120" height="124" viewBox="0 0 120 124" fill="none" xmlns="http://www.w3.org/2000/svg">
    <path fillRule="evenodd" clip-rule="evenodd" d="M105 60.5164C105 85.3692 84.8528 105.516 60 105.516C35.1472 105.516 15 85.3692 15 60.5164C15 35.6635 35.1472 15.5164 60 15.5164C84.8528 15.5164 105 35.6635 105 60.5164ZM110 60.5164C110 88.1306 87.6142 110.516 60 110.516C32.3858 110.516 10 88.1306 10 60.5164C10 32.9021 32.3858 10.5164 60 10.5164C87.6142 10.5164 110 32.9021 110 60.5164ZM41.3411 41.4873C42.3581 40.4703 44.0069 40.4703 45.0239 41.4873L59.8123 56.2757L74.1167 41.9714C75.1337 40.9544 76.7825 40.9544 77.7995 41.9714C78.8165 42.9883 78.8165 44.6372 77.7995 45.6542L63.4952 59.9586L78.1695 74.6329C79.1865 75.6499 79.1865 77.2988 78.1695 78.3158C77.1525 79.3328 75.5037 79.3328 74.4867 78.3158L59.8123 63.6414L44.6539 78.7998C43.6369 79.8168 41.988 79.8168 40.9711 78.7998C39.9541 77.7828 39.9541 76.134 40.9711 75.117L56.1295 59.9586L41.3411 45.1701C40.3241 44.1532 40.3241 42.5043 41.3411 41.4873Z" fill="#E83F5B"/>
</svg>
    